<svg xmlns="http://www.w3.org/2000/svg" width="512" height="512" viewBox="0 0 512 512">
  <rect width="512" height="512" fill="#030508"/>
  <g fill="#fff">
    <circle cx="24" cy="18" r="0.6" opacity="0.9"/><circle cx="88" cy="42" r="0.4" opacity="0.5"/>
    <circle cx="156" cy="12" r="0.7" opacity="0.85"/><circle cx="220" cy="68" r="0.5" opacity="0.6"/>
    <circle cx="312" cy="28" r="0.6" opacity="0.75"/><circle cx="388" cy="54" r="0.4" opacity="0.55"/>
    <circle cx="468" cy="16" r="0.8" opacity="0.9"/><circle cx="44" cy="112" r="0.5" opacity="0.65"/>
    <circle cx="128" cy="96" r="0.6" opacity="0.8"/><circle cx="204" cy="140" r="0.4" opacity="0.45"/>
    <circle cx="296" cy="108" r="0.7" opacity="0.7"/><circle cx="372" cy="124" r="0.5" opacity="0.6"/>
    <circle cx="452" cy="98" r="0.6" opacity="0.85"/><circle cx="68" cy="188" r="0.4" opacity="0.5"/>
    <circle cx="172" cy="204" r="0.8" opacity="0.95"/><circle cx="248" cy="176" r="0.5" opacity="0.55"/>
    <circle cx="336" cy="192" r="0.6" opacity="0.75"/><circle cx="420" cy="168" r="0.4" opacity="0.5"/>
    <circle cx="12" cy="248" r="0.6" opacity="0.7"/><circle cx="96" cy="268" r="0.5" opacity="0.65"/>
    <circle cx="188" cy="252" r="0.4" opacity="0.4"/><circle cx="264" cy="288" r="0.7" opacity="0.8"/>
    <circle cx="348" cy="244" r="0.5" opacity="0.6"/><circle cx="432" cy="272" r="0.6" opacity="0.9"/>
    <circle cx="488" cy="228" r="0.4" opacity="0.45"/><circle cx="52" cy="332" r="0.7" opacity="0.85"/>
    <circle cx="140" cy="308" r="0.5" opacity="0.55"/><circle cx="228" cy="348" r="0.6" opacity="0.7"/>
    <circle cx="308" cy="320" r="0.4" opacity="0.5"/><circle cx="396" cy="336" r="0.8" opacity="0.9"/>
    <circle cx="476" cy="312" r="0.5" opacity="0.6"/><circle cx="28" cy="412" r="0.6" opacity="0.75"/>
    <circle cx="116" cy="388" r="0.4" opacity="0.45"/><circle cx="200" cy="428" r="0.7" opacity="0.8"/>
    <circle cx="284" cy="396" r="0.5" opacity="0.65"/><circle cx="364" cy="420" r="0.6" opacity="0.7"/>
    <circle cx="448" cy="388" r="0.5" opacity="0.55"/><circle cx="80" cy="468" r="0.6" opacity="0.85"/>
    <circle cx="168" cy="488" r="0.4" opacity="0.5"/><circle cx="256" cy="452" r="0.8" opacity="0.95"/>
    <circle cx="340" cy="476" r="0.5" opacity="0.6"/><circle cx="424" cy="448" r="0.6" opacity="0.75"/>
    <circle cx="500" cy="468" r="0.4" opacity="0.5"/>
  </g>
  <g fill="#ffe81f">
    <circle cx="132" cy="64" r="0.9" opacity="0.35"/><circle cx="360" cy="156" r="0.8" opacity="0.3"/>
    <circle cx="72" cy="296" r="0.7" opacity="0.28"/><circle cx="288" cy="64" r="0.6" opacity="0.25"/>
    <circle cx="412" cy="380" r="0.9" opacity="0.32"/><circle cx="196" cy="412" r="0.7" opacity="0.22"/>
  </g>
  <g fill="#4bd5ee">
    <circle cx="240" cy="120" r="0.7" opacity="0.25"/><circle cx="48" cy="360" r="0.6" opacity="0.2"/>
    <circle cx="468" cy="180" r="0.8" opacity="0.28"/>
  </g>
</svg>
